<?xml version="1.0" encoding="utf-8"?>
<!-- Generator: Adobe Illustrator 28.1.0, SVG Export Plug-In . SVG Version: 6.00 Build 0)  -->
<svg version="1.1" id="logo-3" xmlns="http://www.w3.org/2000/svg" xmlns:xlink="http://www.w3.org/1999/xlink" x="0px" y="0px"
	 viewBox="0 0 132 35" style="enable-background:new 0 0 132 35;" xml:space="preserve">
<style type="text/css">
	.st0{fill:#FFFFFF;}
</style>
<path class="st0" d="M44.8,25.2c-0.6,0-1.2-0.1-1.7-0.5c-0.2-0.2-0.4-0.3-0.5-0.6c-0.1-0.2-0.2-0.5-0.2-0.7v-9.3c0,0,0-0.1,0-0.1
	c0,0,0-0.1,0.1-0.1s0.1,0,0.1-0.1c0,0,0.1,0,0.1,0h1.7c0.2,0,0.3,0.1,0.3,0.3v8.6c0,0.4,0.2,0.6,0.5,0.6c0.1,0,0.3,0,0.4,0
	c0.2,0,0.3,0.1,0.3,0.2l0.1,1.2c0,0,0,0.1,0,0.1c0,0,0,0.1,0,0.1c0,0-0.1,0.1-0.1,0.1c0,0-0.1,0-0.1,0
	C45.6,25.1,45.2,25.2,44.8,25.2z"/>
<path class="st0" d="M54.3,24.1c-0.8,0.7-1.9,1.1-3,1.1c-1.1,0-2.2-0.4-3-1.1c-0.7-0.7-1.2-1.8-1.2-2.8s0.4-2.1,1.2-2.8
	c0.8-0.7,1.9-1.1,3-1.1c1.1,0,2.2,0.4,3,1.1c0.7,0.8,1.1,1.8,1.1,2.8C55.4,22.4,55,23.4,54.3,24.1L54.3,24.1z M49.9,22.8
	c0.4,0.4,0.9,0.6,1.4,0.6c0.5,0,1-0.2,1.4-0.6c0.4-0.4,0.5-0.9,0.5-1.5c0-0.5-0.2-1.1-0.5-1.5c-0.4-0.4-0.9-0.6-1.4-0.6
	c-0.5,0-1,0.2-1.4,0.6c-0.4,0.4-0.5,0.9-0.5,1.5C49.3,21.9,49.5,22.4,49.9,22.8z"/>
<path class="st0" d="M64.7,17.7c0.2,0,0.3,0.1,0.3,0.3v7.2c0,0.5-0.1,1-0.3,1.4c-0.2,0.4-0.5,0.8-0.8,1.2c-0.8,0.7-1.8,1-2.9,1
	c-1,0-1.9-0.2-2.7-0.8c-0.3-0.2-0.6-0.5-0.9-0.9c-0.2-0.3-0.4-0.7-0.4-1.1c0-0.2,0-0.3,0.3-0.3h1.7c0.1,0,0.1,0,0.2,0.1
	c0.1,0,0.1,0.1,0.1,0.2c0.1,0.3,0.3,0.6,0.6,0.7c0.3,0.2,0.7,0.3,1.1,0.3c0.2,0,0.5,0,0.7-0.1c0.2-0.1,0.4-0.2,0.6-0.4
	c0.2-0.2,0.3-0.4,0.4-0.6c0.1-0.2,0.1-0.4,0.1-0.7v-0.6c-0.6,0.4-1.3,0.7-2.1,0.6c-0.5,0-1-0.1-1.5-0.3c-0.5-0.2-0.9-0.5-1.3-0.8
	c-0.7-0.7-1.1-1.7-1.1-2.8c0-1,0.4-2,1.1-2.8c0.4-0.4,0.8-0.6,1.3-0.8c0.5-0.2,1-0.3,1.5-0.3c0.8,0,1.5,0.2,2.1,0.7V18
	c0,0,0-0.1,0-0.1c0,0,0-0.1,0.1-0.1c0,0,0.1,0,0.1-0.1c0,0,0.1,0,0.1,0L64.7,17.7z M60.8,23.4c0.3,0,0.5,0,0.8-0.1
	c0.2-0.1,0.4-0.3,0.6-0.4c0.3-0.4,0.5-1,0.5-1.5c0-0.5-0.2-1.1-0.5-1.5c-0.2-0.2-0.4-0.3-0.6-0.4c-0.2-0.1-0.5-0.1-0.7-0.1
	c-0.3,0-0.5,0-0.8,0.1c-0.2,0.1-0.5,0.3-0.6,0.4c-0.4,0.4-0.6,0.9-0.5,1.5c0,0.5,0.2,1.1,0.5,1.5c0.2,0.2,0.4,0.3,0.6,0.4
	C60.3,23.4,60.5,23.4,60.8,23.4z"/>
<path class="st0" d="M73.6,24.1c-0.8,0.7-1.9,1.1-3,1.1s-2.2-0.4-3-1.1c-0.7-0.8-1.1-1.8-1.1-2.8c0-1,0.4-2.1,1.1-2.8
	c0.8-0.7,1.9-1.1,3-1.1s2.2,0.4,3,1.1c0.7,0.8,1.1,1.8,1.1,2.8C74.7,22.4,74.3,23.4,73.6,24.1L73.6,24.1z M69.1,22.8
	c0.2,0.2,0.4,0.3,0.7,0.4c0.2,0.1,0.5,0.1,0.8,0.1c0.3,0,0.5,0,0.8-0.1s0.5-0.2,0.7-0.4c0.3-0.4,0.5-0.9,0.5-1.5
	c0-0.5-0.2-1.1-0.5-1.5c-0.2-0.2-0.4-0.3-0.7-0.4c-0.2-0.1-0.5-0.1-0.8-0.1c-0.3,0-0.5,0-0.8,0.1s-0.5,0.2-0.7,0.4
	c-0.3,0.4-0.5,0.9-0.5,1.5C68.6,21.9,68.8,22.4,69.1,22.8z"/>
<path class="st0" d="M78.3,16c-0.3,0.2-0.6,0.4-1,0.4c-0.4,0-0.7-0.1-1-0.4c-0.1-0.1-0.2-0.2-0.3-0.4c-0.1-0.2-0.1-0.3-0.1-0.5
	s0-0.3,0.1-0.5c0.1-0.2,0.2-0.3,0.3-0.4c0.3-0.2,0.6-0.3,1-0.3c0.3,0,0.7,0.1,1,0.3c0.1,0.1,0.2,0.2,0.3,0.4
	c0.1,0.2,0.1,0.3,0.1,0.5s0,0.3-0.1,0.5C78.5,15.7,78.4,15.9,78.3,16z M78.5,25.2c-0.6,0-1.2-0.1-1.7-0.5c-0.2-0.2-0.4-0.4-0.5-0.6
	c-0.1-0.2-0.2-0.5-0.2-0.7V18c0,0,0-0.1,0-0.1c0,0,0-0.1,0.1-0.1s0.1,0,0.1-0.1c0,0,0.1,0,0.1,0h1.7c0.2,0,0.3,0.1,0.3,0.3v4.7
	c0,0.4,0.2,0.6,0.5,0.6c0.2,0,0.3,0,0.5,0c0.2,0,0.3,0.1,0.3,0.2l0.2,1.2c0,0,0,0.1,0,0.1c0,0,0,0.1,0,0.1c0,0-0.1,0.1-0.1,0.1
	c0,0-0.1,0-0.1,0C79.3,25.1,78.9,25.2,78.5,25.2z"/>
<path class="st0" d="M86.1,17.4c0.5,0,1,0.1,1.5,0.2c0.5,0.2,0.9,0.5,1.3,0.8c0.7,0.8,1.1,1.8,1.1,2.8s-0.4,2-1.1,2.8
	c-0.4,0.4-0.8,0.7-1.3,0.8c-0.5,0.2-1,0.3-1.5,0.3c-0.7,0-1.5-0.2-2.1-0.6v3.6c0,0.2-0.1,0.3-0.3,0.3H82c0,0-0.1,0-0.1,0
	c0,0-0.1,0-0.1-0.1c0,0,0-0.1-0.1-0.1c0,0,0-0.1,0-0.1V20c0-0.1,0-0.2,0-0.2c0-0.1-0.1-0.1-0.1-0.2c-0.1-0.1-0.1-0.1-0.2-0.1
	c-0.1,0-0.2,0-0.2,0h-0.3c-0.2,0-0.3-0.1-0.3-0.2V18c0-0.1,0-0.1,0.1-0.2c0-0.1,0.1-0.1,0.2-0.1c0.3-0.1,0.7-0.2,1.1-0.2
	c0.4,0,0.7,0,1.1,0.2c0.3,0.2,0.6,0.4,0.8,0.8c0.3-0.3,0.7-0.6,1.1-0.8C85.2,17.5,85.6,17.4,86.1,17.4z M84.5,22.8
	c0.2,0.2,0.4,0.3,0.6,0.4s0.5,0.2,0.8,0.2c0.3,0,0.5-0.1,0.8-0.2c0.2-0.1,0.5-0.2,0.6-0.4c0.4-0.4,0.6-1,0.5-1.5
	c0-0.6-0.2-1.1-0.5-1.5c-0.2-0.2-0.4-0.3-0.6-0.4c-0.2-0.1-0.5-0.2-0.8-0.2c-0.3,0-0.5,0.1-0.8,0.2c-0.2,0.1-0.5,0.2-0.6,0.4
	c-0.4,0.4-0.6,1-0.5,1.5C84,21.8,84.2,22.4,84.5,22.8z"/>
<path class="st0" d="M94.8,25.2c-0.9,0-1.8-0.2-2.6-0.6c-0.3-0.2-0.6-0.4-0.8-0.8c-0.2-0.3-0.3-0.7-0.4-1c0-0.2,0.1-0.3,0.3-0.3h1.5
	c0.1,0,0.1,0,0.2,0.1c0.1,0,0.1,0.1,0.1,0.2c0.2,0.5,0.8,0.8,1.6,0.8c0.3,0,0.6,0,0.9-0.2c0.1,0,0.2-0.1,0.2-0.2
	C96,23.1,96,23,96,22.9c0-0.3-0.2-0.4-0.5-0.6c-0.4-0.1-0.8-0.2-1.2-0.2c-0.5-0.1-0.9-0.1-1.4-0.2c-0.4-0.1-0.9-0.3-1.2-0.7
	c-0.2-0.2-0.3-0.5-0.4-0.8c-0.1-0.3-0.1-0.6-0.1-0.9c0-0.3,0.1-0.6,0.3-0.8c0.2-0.3,0.4-0.5,0.6-0.6c0.7-0.5,1.6-0.7,2.4-0.6
	c0.8,0,1.6,0.2,2.4,0.6c0.3,0.2,0.5,0.4,0.7,0.7c0.2,0.3,0.3,0.6,0.4,0.9c0,0.2-0.1,0.3-0.3,0.3h-1.5c-0.1,0-0.1,0-0.2,0
	s-0.1-0.1-0.1-0.1c-0.1-0.2-0.3-0.4-0.5-0.5C95.3,19,95,18.9,94.7,19c-0.3,0-0.6,0-0.9,0.2c-0.1,0-0.2,0.1-0.2,0.2
	c-0.1,0.1-0.1,0.2-0.1,0.3c0,0.1,0.1,0.3,0.1,0.4c0.1,0.1,0.2,0.2,0.3,0.2c0.4,0.1,0.8,0.2,1.2,0.3c0.5,0.1,0.9,0.1,1.4,0.3
	c0.4,0.1,0.9,0.3,1.2,0.7c0.2,0.2,0.3,0.4,0.4,0.6c0.1,0.2,0.1,0.5,0.1,0.7c0,0.3-0.1,0.7-0.2,1c-0.2,0.3-0.4,0.6-0.7,0.7
	C96.5,25,95.7,25.2,94.8,25.2z"/>
<path class="st0" d="M108.8,24.7c0,0,0,0.1,0,0.1c0,0,0,0.1,0,0.1c0,0,0,0.1-0.1,0.1c0,0-0.1,0-0.1,0c-0.4,0.1-0.7,0.2-1.1,0.2
	c-0.4,0-0.8,0-1.1-0.2c-0.4-0.2-0.7-0.4-0.9-0.7c-0.7,0.6-1.6,0.9-2.5,0.9c-0.4,0-0.9-0.1-1.3-0.2c-0.4-0.2-0.8-0.4-1.1-0.7
	c-0.3-0.3-0.5-0.7-0.7-1.1c-0.2-0.4-0.2-0.9-0.2-1.3V18c0-0.2,0.1-0.3,0.3-0.3h1.7c0.2,0,0.3,0.1,0.3,0.3v3.6c0,0.4,0.1,0.9,0.4,1.2
	c0.1,0.2,0.3,0.3,0.5,0.4s0.4,0.1,0.6,0.1c0.2,0,0.4,0,0.6-0.1c0.2-0.1,0.4-0.2,0.6-0.3c0.2-0.2,0.3-0.3,0.3-0.5
	c0.1-0.2,0.1-0.4,0.1-0.6V18c0-0.2,0.1-0.3,0.3-0.3h1.7c0.2,0,0.3,0.1,0.3,0.3v4.7c0,0.4,0.2,0.6,0.5,0.6c0.2,0,0.3,0,0.5,0
	c0,0,0.1,0,0.1,0c0,0,0.1,0,0.1,0s0.1,0.1,0.1,0.1c0,0,0,0.1,0,0.1L108.8,24.7z"/>
<path class="st0" d="M124.7,24.7c0,0,0,0.1,0,0.1c0,0,0,0.1,0,0.1c0,0,0,0.1-0.1,0.1c0,0-0.1,0-0.1,0c-0.4,0.1-0.8,0.2-1.2,0.2
	c-0.6,0-1.2-0.1-1.7-0.5c-0.2-0.1-0.4-0.3-0.5-0.6c-0.1-0.2-0.2-0.5-0.2-0.7v-2.4c0-0.4-0.1-0.9-0.4-1.2c-0.1-0.2-0.3-0.3-0.5-0.4
	c-0.2-0.1-0.4-0.1-0.6-0.1c-0.2,0-0.4,0-0.6,0.1c-0.2,0.1-0.3,0.2-0.4,0.3c-0.3,0.3-0.4,0.8-0.4,1.2v3.7c0,0.2-0.1,0.3-0.3,0.3h-1.7
	c0,0-0.1,0-0.1,0c0,0-0.1,0-0.1-0.1c0,0,0-0.1-0.1-0.1c0,0,0-0.1,0-0.1v-3.6c0-0.4-0.1-0.9-0.4-1.2c-0.1-0.1-0.3-0.3-0.4-0.3
	c-0.2-0.1-0.4-0.1-0.6-0.1c-0.2,0-0.4,0-0.6,0.1c-0.2,0.1-0.4,0.2-0.5,0.3c-0.3,0.3-0.4,0.7-0.4,1.2v3.7c0,0,0,0.1,0,0.1
	c0,0,0,0.1-0.1,0.1c0,0-0.1,0-0.1,0.1c0,0-0.1,0-0.1,0h-1.6c-0.2,0-0.3-0.1-0.3-0.3V20c0-0.1,0-0.2,0-0.2c0-0.1-0.1-0.1-0.1-0.2
	c-0.1-0.1-0.1-0.1-0.2-0.1c-0.1,0-0.2,0-0.2,0h-0.3c-0.2,0-0.3-0.1-0.3-0.2V18c0-0.1,0-0.1,0.1-0.2c0-0.1,0.1-0.1,0.2-0.1
	c0.3-0.1,0.7-0.2,1.1-0.2c0.4,0,0.7,0,1,0.2c0.3,0.2,0.6,0.4,0.8,0.7c0.3-0.3,0.7-0.6,1.2-0.7c0.4-0.2,0.9-0.2,1.4-0.2
	c0.5,0,0.9,0.1,1.3,0.2s0.8,0.5,1.1,0.8c0.3-0.4,0.7-0.6,1.2-0.8c0.5-0.2,0.9-0.3,1.4-0.2c0.4,0,0.9,0,1.3,0.2
	c0.4,0.2,0.8,0.4,1.1,0.7c0.3,0.3,0.5,0.7,0.7,1.1c0.2,0.4,0.2,0.9,0.2,1.3v1.9c0,0.4,0.2,0.6,0.5,0.6c0.2,0,0.3,0,0.5,0
	c0.2,0,0.3,0.1,0.3,0.2L124.7,24.7z"/>
<path class="st0" d="M7.4,16.4c0.7-3,2.4-5.6,4.9-7.5C14.7,7,17.6,6,20.7,6s6,1,8.4,2.9c2.4,1.9,4.1,4.5,4.9,7.5h-1.2
	c-2,0-4,0.6-5.7,1.7c-0.1,0.1-0.2,0.1-0.3,0.2h-0.1c-0.1-0.1-0.2-0.1-0.3-0.2c-1.7-1.1-3.7-1.7-5.7-1.7s-4,0.6-5.7,1.7
	c-0.1,0.1-0.2,0.1-0.3,0.2h-0.1c-0.1-0.1-0.2-0.1-0.3-0.2c-1.7-1.2-3.6-1.8-5.7-1.7H7.4z M30.6,22.7c0.6-0.5,1.4-0.7,2.2-0.7h1.6
	v-3.2h-1.6c-1.4,0-2.7,0.4-3.8,1.2c-0.6,0.5-1.4,0.7-2.2,0.7c-0.8,0-1.5-0.2-2.2-0.7c-1.1-0.8-2.5-1.2-3.9-1.2
	c-1.4,0-2.7,0.4-3.9,1.2c-0.6,0.5-1.4,0.7-2.2,0.7s-1.5-0.2-2.2-0.7c-1.1-0.8-2.5-1.2-3.9-1.2H7v3.2h1.6c0.8,0,1.5,0.2,2.2,0.7
	c1.1,0.8,2.5,1.2,3.9,1.2s2.7-0.4,3.9-1.2c0.6-0.5,1.4-0.7,2.2-0.7c0.8,0,1.5,0.2,2.2,0.7c1.1,0.8,2.5,1.2,3.9,1.2
	C28.1,23.9,29.5,23.4,30.6,22.7L30.6,22.7z M30.6,28.4c0.6-0.5,1.4-0.7,2.2-0.7h1.6v-3.2h-1.6c-1.4,0-2.7,0.4-3.8,1.2
	c-0.6,0.5-1.4,0.7-2.2,0.7c-0.8,0-1.5-0.2-2.2-0.7c-1.1-0.8-2.5-1.2-3.9-1.2c-1.4,0-2.7,0.4-3.9,1.2c-0.6,0.5-1.4,0.7-2.2,0.7
	s-1.5-0.2-2.2-0.7c-1.1-0.8-2.5-1.2-3.9-1.2H7v3.2h1.6c0.8,0,1.5,0.2,2.2,0.7c1.1,0.8,2.5,1.2,3.9,1.2s2.7-0.4,3.9-1.2
	c0.6-0.5,1.4-0.7,2.2-0.7c0.8,0,1.5,0.2,2.2,0.7c1.1,0.8,2.5,1.2,3.9,1.2C28.1,29.6,29.5,29.2,30.6,28.4L30.6,28.4z"/>
</svg>
